<?xml version="1.0" encoding="utf-8"?>
<!-- Generator: Adobe Illustrator 26.0.2, SVG Export Plug-In . SVG Version: 6.00 Build 0)  -->
<svg version="1.1" id="Layer_1" xmlns="http://www.w3.org/2000/svg" xmlns:xlink="http://www.w3.org/1999/xlink" x="0px" y="0px"
	 viewBox="0 0 267.9 274.6" style="enable-background:new 0 0 267.9 274.6;" xml:space="preserve">
<style type="text/css">
	.st0{fill:#68C07A;}
	.st1{fill:#97D0A2;}
</style>
<g id="XMLID_3034_">
	<g id="XMLID_17721_">
		<g id="XMLID_17722_">
			<path id="XMLID_17724_" class="st0" d="M266.8,123.5c-5.1,11.2-16.9,24.6-32.6,38.3c-1.1,1-2.2,1.9-3.3,2.9
				c-2.2,1.9-4.5,3.8-6.9,5.7c0,0,0,0,0,0c-1.8,1.6-3.7,3.1-5.7,4.5c-61.6,47.4-158.8,91.2-175.3,53.2c-0.1-0.2-0.2-0.4-0.2-0.6
				C30,197.8,26,150.2,26.7,106.2c0.5-31.6,3.3-61.4,6.9-81.5c21.1-6.2,42.4-3.2,60.8,16.8c65.9,71.8-6.2,151.8-6.2,151.8
				c12.3-6.9,22.6-15.9,30.8-26.3c3.9-5,7.4-10.3,10.3-15.9c15.4-29.6,16.3-66.1-1-97.5c-18-32.8-51.2-51.9-86-53.4
				c-2.9-0.1-5.8-0.1-8.7,0C23.2,0.5,14.1,7.8,11.4,17.9c-0.1,0.5-0.2,0.8-0.2,0.8C5.6,38.7,0.7,79.9,0.1,124.3
				C-0.6,172.9,3.7,225.2,17.7,258c0.1,0.2,0.2,0.4,0.3,0.6c18.3,41.9,125.3-6.4,193.3-58.6c2.3-1.5,4.4-3.2,6.3-5c0,0,0,0,0,0
				c2.6-2.1,5.1-4.2,7.6-6.3c1.2-1.1,2.5-2.1,3.7-3.2c23.8-20.8,39.5-41,39-55C267.8,128.3,267.4,125.9,266.8,123.5z M36.9,9.7
				c-0.1,0.3-0.1,0.5-0.1,0.6C36.8,10.2,36.8,10,36.9,9.7z"/>
			<path id="XMLID_17723_" class="st1" d="M194.5,50.6c-5.6-3.5-11.3-7-17.1-10.3c13.1,28.2,13,59.5,1.8,86.6
				c-9,22-25.4,41.1-47.8,53.4c-13.8,7.6-28.5,11.8-43.3,13c0,0,72.1-80,6.2-151.8c-18.4-20-39.7-23-60.8-16.8
				c-3.6,20.2-6.5,49.9-6.9,81.5c-0.6,44,3.3,91.6,16,121.3c0.1,0.2,0.2,0.4,0.2,0.6c16.6,38,113.7-5.8,175.3-53.2
				c2.1-1.4,4-2.9,5.7-4.5c0,0,0,0,0,0c2.4-1.9,4.7-3.8,6.9-5.7c1.1-1,2.2-1.9,3.3-2.9c15.7-13.7,27.5-27.1,32.6-38.3
				C261,99.5,230.6,73.4,194.5,50.6z"/>
		</g>
	</g>
</g>
</svg>
